<svg id="visual" viewBox="0 0 900 675" width="900" height="675" xmlns="http://www.w3.org/2000/svg" xmlns:xlink="http://www.w3.org/1999/xlink" version="1.1"><rect x="0" y="0" width="900" height="675" fill="#001220"></rect><defs><linearGradient id="grad1_0" x1="25%" y1="0%" x2="100%" y2="100%"><stop offset="23.333333333333336%" stop-color="#001220" stop-opacity="1"></stop><stop offset="76.66666666666666%" stop-color="#001220" stop-opacity="1"></stop></linearGradient></defs><defs><linearGradient id="grad2_0" x1="0%" y1="0%" x2="75%" y2="100%"><stop offset="23.333333333333336%" stop-color="#001220" stop-opacity="1"></stop><stop offset="76.66666666666666%" stop-color="#001220" stop-opacity="1"></stop></linearGradient></defs><g transform="translate(900, 0)"><path d="M0 393.8C-31.3 379.8 -62.6 365.8 -96.3 359.3C-130 352.8 -166.1 353.7 -196.9 341C-227.7 328.3 -253.3 302 -275.1 275.1C-296.9 248.2 -314.9 220.7 -332.6 192C-350.2 163.3 -367.5 133.4 -377.7 101.2C-387.8 69 -390.8 34.5 -393.7 0L0 0Z" fill="#FBAE3C"></path></g><g transform="translate(0, 675)"><path d="M0 -393.7C36.1 -393.9 72.1 -394.1 100.7 -375.7C129.2 -357.4 150.3 -320.6 170 -294.4C189.7 -268.3 208.1 -252.8 241.1 -241.1C274.1 -229.4 321.7 -221.5 341 -196.9C360.3 -172.2 351.4 -130.8 355.5 -95.2C359.5 -59.6 376.6 -29.8 393.8 0L0 0Z" fill="#FBAE3C"></path></g></svg>